<svg width="1639" height="617" viewBox="0 0 1639 617" fill="none" xmlns="http://www.w3.org/2000/svg">
<g clip-path="url(#clip0_301_140)">
<rect width="1639" height="617" fill="white"/>
<rect y="-3" width="1639" height="620" fill="#FFF0DD"/>
<g clip-path="url(#clip1_301_140)">
<path d="M1109.25 389.596C1111.43 378.982 1111.94 368.587 1105.75 358.858C1103.75 355.693 1102.53 352.163 1099.06 350.096C1095.2 347.746 1092.87 343.425 1093.74 339.737C1097.29 324.867 1090.9 311.246 1088.98 297.193C1071.36 168.69 1156.68 46.1069 1283.25 18.9051C1412.91 -8.94934 1540.29 66.7464 1578.13 194.161C1620.83 337.899 1522.25 491.352 1373.55 511.172C1292.64 521.971 1221.89 498.621 1162.1 442.839C1159 439.947 1156.44 434.315 1151.37 440.987C1149.92 442.904 1147.25 442.145 1145.58 440.271C1143.91 438.396 1143.62 435.81 1145.27 434.25C1150.34 429.417 1146.82 426.208 1143.86 422.342C1137.78 414.399 1130.6 406.849 1126.57 397.916C1122.55 388.983 1115.66 390.699 1109.14 389.484L1109.25 389.596Z" fill="#7E6CED" fill-opacity="0.24"/>
<path d="M1109.14 389.484C1132.05 414.658 1146.74 443.644 1152.04 477.633C1163.82 553.14 1109.03 632.699 1034 648.061C949.622 665.29 873.392 619.67 849.67 537.574C825.211 452.786 885.744 358.743 973.038 346.02C1025.56 338.371 1070.74 353.525 1109.25 389.596L1109.14 389.484Z" fill="#9793CA"/>
<path d="M1018.93 228.631C1010.38 228.555 1001.93 226.792 994.065 223.444C986.2 220.095 979.073 215.227 973.095 209.119C967.117 203.011 962.405 195.782 959.229 187.849C956.053 179.915 954.476 171.433 954.588 162.889C955.1 127.999 985.281 98.5522 1020.19 98.9647C1055.65 99.3853 1085.13 129.685 1084.47 165.06C1084.12 182.148 1077.04 198.409 1064.77 210.312C1052.5 222.214 1036.03 228.797 1018.93 228.631Z" fill="#FFAB90" fill-opacity="0.54"/>
<path d="M1306.03 583.221C1305.63 609.915 1283.71 631.982 1257.87 631.592C1232.76 631.224 1210.07 608.202 1209.92 582.963C1209.77 556.628 1232.92 534.035 1259.53 534.547C1285.97 535.046 1306.38 556.394 1306.03 583.221Z" fill="#FFAB90"/>
<path d="M950.341 340.514C929.43 340.262 913.542 324.021 913.825 303.209C914.109 283.859 931.615 266.911 951.087 267.063C970.558 267.216 987.607 284.461 987.532 303.958C987.588 308.826 986.659 313.656 984.802 318.157C982.945 322.658 980.198 326.737 976.725 330.151C973.251 333.565 969.124 336.243 964.591 338.023C960.057 339.804 955.211 340.651 950.341 340.514V340.514Z" fill="#FFAB90"/>
<path d="M1610.82 205.431C1606.26 205.435 1601.74 204.527 1597.54 202.76C1593.33 200.994 1589.52 198.404 1586.34 195.143C1583.15 191.883 1580.64 188.017 1578.97 183.775C1577.3 179.533 1576.5 175 1576.61 170.442C1576.73 152.076 1593.34 135.746 1611.74 135.916C1630.13 136.086 1646.11 152.75 1646.04 171.45C1645.98 190.149 1629.88 205.722 1610.82 205.431Z" fill="#FFAB90"/>
<path d="M1172.3 565.184C1189 565.296 1203.72 579.77 1203.9 596.258C1204.08 613.521 1189.77 627.912 1172.29 628.043C1154.81 628.175 1141.45 614.817 1141.47 597.181C1141.54 578.88 1154.86 565.083 1172.3 565.184Z" fill="#FFAB90"/>
<path d="M1024.96 258.188C1024.87 264.979 1022.13 271.466 1017.31 276.258C1012.5 281.05 1005.99 283.765 999.199 283.822C984.945 283.823 973.341 271.711 973.578 257.102C973.814 242.493 984.734 231.785 999.308 231.799C1014.35 231.865 1025.16 243.013 1024.96 258.188Z" fill="#790000" fill-opacity="0.67"/>
<path d="M1362.32 573.268C1362.28 576.551 1361.58 579.792 1360.27 582.804C1358.96 585.816 1357.07 588.538 1354.7 590.813C1352.33 593.087 1349.54 594.869 1346.47 596.055C1343.41 597.241 1340.14 597.807 1336.86 597.721C1323.26 597.522 1312.65 586.044 1312.95 571.89C1313.31 557.272 1323.47 548.026 1338.65 548.493C1352.55 548.918 1362.73 559.559 1362.32 573.268Z" fill="#790000" fill-opacity="0.67"/>
<path d="M1000.87 319.231C1001.05 306.948 1010.28 297.799 1022.32 297.965C1034.37 298.131 1044.18 307.747 1044.08 319.333C1043.97 330.92 1033.84 341.207 1022.63 341.264C1019.73 341.338 1016.84 340.816 1014.15 339.73C1011.46 338.645 1009.02 337.02 1006.98 334.956C1004.94 332.891 1003.35 330.43 1002.3 327.726C1001.25 325.021 1000.76 322.13 1000.87 319.231V319.231Z" fill="#790000" fill-opacity="0.67"/>
<path d="M1124.4 94.467C1124.26 103.704 1114.58 112.857 1105.18 112.608C1096.1 112.365 1087.45 103.142 1087.72 93.9621C1087.97 84.5601 1096.49 76.0218 1105.79 75.8703C1115.1 75.7187 1124.54 85.008 1124.4 94.467Z" fill="#790000" fill-opacity="0.67"/>
<path d="M1214.63 549.675C1214.47 554.392 1212.48 558.862 1209.09 562.145C1205.7 565.428 1201.16 567.268 1196.44 567.278C1187.38 567.2 1178.61 557.888 1178.98 548.742C1179.01 546.393 1179.52 544.075 1180.47 541.927C1181.42 539.778 1182.79 537.844 1184.51 536.24C1186.23 534.637 1188.25 533.397 1190.46 532.595C1192.67 531.793 1195.02 531.446 1197.37 531.575C1207.69 531.826 1214.83 539.309 1214.63 549.675Z" fill="#790000" fill-opacity="0.67"/>
<path d="M1054.41 281.785C1054.42 283.809 1054.01 285.812 1053.22 287.673C1052.42 289.534 1051.25 291.214 1049.79 292.61C1048.32 294.005 1046.59 295.088 1044.69 295.791C1042.79 296.494 1040.77 296.803 1038.75 296.699C1029.3 296.494 1023.78 290.653 1024.09 281.196C1024.27 277.248 1025.99 273.527 1028.87 270.826C1031.76 268.124 1035.58 266.655 1039.54 266.732C1043.49 266.809 1047.26 268.425 1050.04 271.237C1052.82 274.048 1054.39 277.833 1054.41 281.785Z" fill="#FF7456"/>
<path d="M1437.35 508.662C1439.16 508.639 1440.95 508.974 1442.62 509.648C1444.3 510.321 1445.82 511.321 1447.1 512.588C1448.39 513.855 1449.4 515.364 1450.1 517.028C1450.8 518.692 1451.15 520.478 1451.15 522.281C1451.05 529.458 1444.24 535.695 1436.79 535.486C1429.84 535.284 1423.53 529.055 1423.39 522.25C1423.25 515.136 1429.94 508.62 1437.35 508.662Z" fill="#FF7456"/>
<path d="M1176.05 465.999C1174.91 472.74 1171.22 477.062 1164.11 476.492C1157.75 475.989 1153.57 471.906 1153.78 465.351C1154 458.53 1157.88 454.055 1165.09 454.327C1172.3 454.599 1175.57 459.034 1176.05 465.999Z" fill="#790000" fill-opacity="0.67"/>
<path d="M1052.65 225.204C1059.05 226.051 1063.73 229.188 1063.66 235.779C1063.56 242.546 1059.14 247.024 1052.41 247.002C1045.88 246.984 1042.17 242.421 1042.16 235.995C1042.13 229.37 1046.39 226.064 1052.65 225.204Z" fill="#FFBDA3"/>
<path d="M1301.08 548.008C1295.2 547.013 1291.74 543.329 1291.9 537.792C1292.07 531.712 1296.11 527.783 1302.35 528.274C1307.89 528.698 1311.77 532.323 1311.49 538.223C1311.19 544.445 1307.14 547.543 1301.08 548.008Z" fill="#790000" fill-opacity="0.67"/>
<path d="M1256.13 347.97C1260.01 344.831 1263.24 341.279 1263.88 336.006C1264.09 334.294 1264.69 332.679 1264.06 330.927C1263.38 328.963 1263.81 326.743 1265.2 325.686C1270.81 321.43 1272.53 314.714 1275.96 309.15C1307.29 258.256 1373.53 239.596 1426.54 266.953C1480.84 294.982 1504.02 359.201 1480.21 415.625C1453.34 479.281 1373.35 505.049 1314.62 468.587C1282.66 448.752 1264.31 419.737 1259.36 382.387C1259.1 380.449 1259.84 377.696 1256.08 378.586C1255 378.845 1254.28 377.793 1254.23 376.638C1254.19 375.482 1254.84 374.476 1255.88 374.404C1259.1 374.167 1258.79 371.995 1258.86 369.753C1259.03 365.147 1258.68 360.358 1259.86 356C1261.04 351.643 1258.09 350.238 1256.12 347.898L1256.13 347.97Z" fill="#7E6CED" fill-opacity="0.24"/>
<path d="M1256.12 347.898C1256.91 363.561 1253.66 378.178 1245.6 391.825C1227.69 422.148 1184.91 434.43 1153.71 417.941C1118.64 399.381 1104.85 360.835 1120.44 324.674C1136.54 287.338 1185.61 271.581 1220.4 292.599C1241.34 305.248 1252.98 323.862 1256.13 347.97L1256.12 347.898Z" fill="#9793CA"/>
<path d="M1271.09 264.247C1268.07 261.718 1265.58 258.618 1263.76 255.125C1261.94 251.631 1260.83 247.813 1260.49 243.89C1260.14 239.966 1260.58 236.014 1261.77 232.261C1262.97 228.508 1264.89 225.028 1267.43 222.019C1277.82 209.751 1297.18 208.103 1309.48 218.465C1321.98 228.992 1323.61 248.404 1313.02 260.801C1307.89 266.781 1300.62 270.498 1292.77 271.143C1284.91 271.788 1277.13 269.31 1271.09 264.247Z" fill="#FFAB90" fill-opacity="0.54"/>
<path d="M1269.5 474.47C1261.55 483.856 1247.29 485.294 1238.21 477.593C1229.38 470.113 1228.04 455.281 1235.37 446.254C1243.02 436.835 1257.88 435.569 1267.2 443.541C1276.46 451.455 1277.48 465.024 1269.5 474.47Z" fill="#FFAB90"/>
<path d="M1213.93 283.997C1206.57 277.788 1205.66 267.358 1211.85 260.033C1217.62 253.229 1228.81 252.32 1235.69 258.073C1242.58 263.825 1243.6 274.952 1237.87 281.869C1236.46 283.618 1234.72 285.066 1232.74 286.124C1230.76 287.183 1228.59 287.831 1226.36 288.03C1224.12 288.228 1221.87 287.973 1219.74 287.281C1217.6 286.588 1215.63 285.471 1213.93 283.997V283.997Z" fill="#FFAB90"/>
<path d="M1488.54 429.202C1486.92 427.869 1485.58 426.224 1484.6 424.365C1483.62 422.506 1483.02 420.469 1482.84 418.376C1482.66 416.282 1482.9 414.174 1483.55 412.175C1484.19 410.176 1485.23 408.327 1486.61 406.737C1492.02 400.237 1502.72 399.286 1509.21 404.73C1515.71 410.174 1516.52 420.779 1511.02 427.416C1505.53 434.053 1495.24 434.884 1488.54 429.202Z" fill="#FFAB90"/>
<path d="M1227.19 428.916C1233.1 433.844 1234.1 443.302 1229.34 449.223C1224.35 455.419 1215.05 456.354 1208.79 451.285C1202.53 446.216 1201.68 437.552 1206.85 431.283C1212.23 424.789 1221.01 423.775 1227.19 428.916Z" fill="#FFAB90"/>
<path d="M1264.58 276.531C1262.57 278.923 1259.69 280.429 1256.57 280.725C1253.46 281.021 1250.35 280.085 1247.91 278.117C1242.84 273.946 1242.26 266.239 1246.61 261.109C1250.97 255.978 1257.99 255.363 1263.18 259.633C1268.51 264.058 1269.1 271.189 1264.58 276.531Z" fill="#790000" fill-opacity="0.67"/>
<path d="M1292.45 487.402C1291.48 488.557 1290.28 489.507 1288.93 490.196C1287.59 490.885 1286.12 491.3 1284.61 491.417C1283.1 491.533 1281.58 491.349 1280.14 490.875C1278.71 490.4 1277.38 489.645 1276.23 488.654C1271.45 484.604 1271.03 477.412 1275.28 472.464C1279.69 467.366 1286.01 467.047 1291.28 471.655C1296.1 475.875 1296.61 482.643 1292.45 487.402Z" fill="#790000" fill-opacity="0.67"/>
<path d="M1238.15 291.21C1241.81 286.891 1247.77 286.334 1252.01 289.918C1256.24 293.502 1256.92 299.796 1253.5 303.889C1250.07 307.983 1243.45 308.678 1239.44 305.419C1238.39 304.596 1237.52 303.565 1236.87 302.391C1236.23 301.218 1235.84 299.925 1235.72 298.593C1235.6 297.262 1235.75 295.92 1236.17 294.65C1236.59 293.38 1237.26 292.209 1238.15 291.21V291.21Z" fill="#790000" fill-opacity="0.67"/>
<path d="M1347.89 247.36C1345.14 250.608 1339.01 251.034 1335.74 248.193C1332.58 245.45 1332.2 239.635 1334.98 236.446C1337.82 233.173 1343.35 232.629 1346.71 235.297C1350.06 237.965 1350.71 244.034 1347.89 247.36Z" fill="#790000" fill-opacity="0.67"/>
<path d="M1246.79 435.785C1245.35 437.416 1243.34 438.426 1241.17 438.601C1239 438.777 1236.85 438.105 1235.17 436.726C1231.96 434.046 1231.57 428.167 1234.38 425.019C1235.07 424.192 1235.93 423.515 1236.9 423.029C1237.87 422.542 1238.92 422.256 1240 422.188C1241.08 422.12 1242.17 422.271 1243.19 422.632C1244.21 422.993 1245.15 423.556 1245.94 424.289C1249.54 427.4 1249.9 432.153 1246.79 435.785Z" fill="#790000" fill-opacity="0.67"/>
<path d="M1268.16 293.55C1267.57 294.272 1266.84 294.866 1266.01 295.296C1265.19 295.725 1264.28 295.982 1263.35 296.049C1262.42 296.117 1261.48 295.994 1260.6 295.689C1259.72 295.384 1258.91 294.902 1258.22 294.273C1254.92 291.438 1254.67 287.742 1257.54 284.466C1258.76 283.114 1260.46 282.292 1262.28 282.175C1264.1 282.058 1265.89 282.655 1267.27 283.839C1268.66 285.023 1269.53 286.701 1269.69 288.515C1269.86 290.329 1269.31 292.136 1268.16 293.55Z" fill="#FF7456"/>
<path d="M1338.06 486.365C1338.71 486.885 1339.25 487.528 1339.65 488.257C1340.05 488.987 1340.3 489.788 1340.39 490.615C1340.47 491.442 1340.39 492.277 1340.15 493.073C1339.91 493.869 1339.52 494.609 1338.99 495.25C1336.85 497.774 1332.6 498.002 1330.02 495.748C1327.6 493.64 1327.18 489.578 1329.12 487.114C1331.15 484.541 1335.44 484.18 1338.06 486.365Z" fill="#FF7456"/>
<path d="M1257.55 394.711C1255.17 396.777 1252.59 397.236 1250.23 394.953C1248.11 392.911 1247.82 390.236 1249.81 387.964C1251.89 385.601 1254.57 385.144 1257.06 387.351C1259.55 389.558 1259.42 392.094 1257.55 394.711Z" fill="#790000" fill-opacity="0.67"/>
<path d="M1284.09 272.896C1286.12 275.069 1286.87 277.557 1284.92 279.881C1282.9 282.26 1280.02 282.56 1277.63 280.584C1275.31 278.667 1275.32 275.956 1277.2 273.668C1279.13 271.299 1281.61 271.369 1284.09 272.896Z" fill="#FFBDA3"/>
<path d="M1278.05 460.489C1276.24 458.413 1276.09 456.09 1277.77 454.165C1279.61 452.054 1282.2 451.837 1284.28 453.838C1286.12 455.61 1286.44 458.035 1284.61 460.052C1282.69 462.181 1280.34 462.096 1278.05 460.489Z" fill="#790000" fill-opacity="0.67"/>
<path d="M1195.33 162.69C1195.95 159.652 1196.1 156.677 1194.33 153.893C1193.76 152.987 1193.41 151.977 1192.41 151.385C1191.31 150.713 1190.64 149.476 1190.89 148.421C1191.91 144.165 1190.08 140.267 1189.53 136.245C1184.49 99.4701 1208.9 64.3889 1245.13 56.6042C1282.23 48.6328 1318.69 70.2956 1329.52 106.759C1341.74 147.895 1313.52 191.81 1270.97 197.482C1247.81 200.573 1227.57 193.891 1210.46 177.927C1209.57 177.099 1208.84 175.487 1207.38 177.397C1206.97 177.945 1206.2 177.728 1205.73 177.192C1205.25 176.655 1205.17 175.915 1205.64 175.469C1207.09 174.086 1206.08 173.167 1205.23 172.061C1203.49 169.788 1201.44 167.627 1200.29 165.07C1199.14 162.514 1197.16 163.005 1195.3 162.657L1195.33 162.69Z" fill="#FFAB90" fill-opacity="0.54"/>
<path d="M1195.3 162.657C1201.85 169.862 1206.06 178.157 1207.57 187.884C1210.95 209.493 1195.27 232.261 1173.79 236.658C1149.65 241.588 1127.83 228.533 1121.04 205.038C1114.04 180.773 1131.37 153.86 1156.35 150.219C1171.38 148.03 1184.31 152.367 1195.33 162.69L1195.3 162.657Z" fill="#790000" fill-opacity="0.67"/>
<path d="M1169.48 116.624C1167.03 116.602 1164.62 116.098 1162.37 115.14C1160.11 114.181 1158.08 112.788 1156.36 111.04C1154.65 109.292 1153.31 107.223 1152.4 104.953C1151.49 102.683 1151.04 100.255 1151.07 97.8099C1151.21 87.8251 1159.85 79.3979 1169.84 79.516C1179.99 79.6363 1188.43 88.3077 1188.24 98.4314C1188.14 103.322 1186.11 107.975 1182.6 111.382C1179.09 114.788 1174.37 116.672 1169.48 116.624Z" fill="#FFAB90" fill-opacity="0.54"/>
<path d="M1251.64 218.102C1251.53 225.741 1245.26 232.056 1237.86 231.945C1230.68 231.839 1224.18 225.251 1224.14 218.028C1224.1 210.491 1230.72 204.026 1238.34 204.172C1245.9 204.315 1251.74 210.424 1251.64 218.102Z" fill="#FFAB90"/>
<path d="M1149.85 148.643C1143.87 148.571 1139.32 143.923 1139.4 137.967C1139.48 132.429 1144.49 127.579 1150.07 127.623C1155.64 127.667 1160.52 132.602 1160.5 138.181C1160.51 139.575 1160.25 140.957 1159.72 142.245C1159.18 143.533 1158.4 144.701 1157.4 145.677C1156.41 146.654 1155.23 147.421 1153.93 147.93C1152.63 148.44 1151.25 148.682 1149.85 148.643V148.643Z" fill="#FFAB90"/>
<path d="M1338.87 109.985C1337.56 109.986 1336.27 109.726 1335.07 109.22C1333.87 108.715 1332.78 107.974 1331.86 107.041C1330.95 106.107 1330.23 105.001 1329.76 103.787C1329.28 102.573 1329.05 101.276 1329.08 99.9715C1329.11 94.7154 1333.87 90.0421 1339.13 90.0908C1344.4 90.1395 1348.97 94.9084 1348.95 100.26C1348.93 105.611 1344.32 110.068 1338.87 109.985Z" fill="#FFAB90"/>
<path d="M1213.37 212.94C1218.15 212.972 1222.36 217.114 1222.42 221.833C1222.47 226.773 1218.37 230.891 1213.37 230.929C1208.37 230.967 1204.54 227.144 1204.55 222.097C1204.57 216.859 1208.38 212.911 1213.37 212.94Z" fill="#FFAB90"/>
<path d="M1171.21 125.083C1171.18 127.026 1170.4 128.883 1169.02 130.254C1167.64 131.626 1165.78 132.403 1163.83 132.419C1159.76 132.419 1156.43 128.953 1156.5 124.772C1156.57 120.591 1159.7 117.527 1163.87 117.531C1168.17 117.55 1171.26 120.74 1171.21 125.083Z" fill="#790000" fill-opacity="0.67"/>
<path d="M1267.75 215.253C1267.74 216.193 1267.54 217.12 1267.17 217.982C1266.79 218.844 1266.25 219.623 1265.57 220.274C1264.9 220.925 1264.1 221.435 1263.22 221.775C1262.34 222.114 1261.41 222.276 1260.47 222.251C1256.58 222.194 1253.54 218.909 1253.63 214.859C1253.73 210.675 1256.63 208.029 1260.98 208.163C1264.96 208.285 1267.87 211.33 1267.75 215.253Z" fill="#790000" fill-opacity="0.67"/>
<path d="M1164.31 142.552C1164.37 139.037 1167.01 136.419 1170.45 136.466C1173.9 136.514 1176.71 139.266 1176.68 142.582C1176.65 145.897 1173.75 148.841 1170.54 148.858C1169.71 148.879 1168.88 148.729 1168.11 148.419C1167.34 148.108 1166.65 147.643 1166.06 147.052C1165.48 146.461 1165.02 145.757 1164.72 144.983C1164.42 144.209 1164.28 143.382 1164.31 142.552V142.552Z" fill="#790000" fill-opacity="0.67"/>
<path d="M1199.66 78.2288C1199.63 80.8724 1196.86 83.4917 1194.16 83.4205C1191.57 83.3507 1189.09 80.7114 1189.17 78.0843C1189.24 75.3936 1191.68 72.9501 1194.34 72.9067C1197 72.8633 1199.7 75.5218 1199.66 78.2288Z" fill="#790000" fill-opacity="0.67"/>
<path d="M1225.49 208.501C1225.44 209.851 1224.87 211.131 1223.9 212.07C1222.93 213.01 1221.63 213.536 1220.28 213.539C1217.69 213.517 1215.18 210.852 1215.29 208.234C1215.29 207.562 1215.44 206.899 1215.71 206.284C1215.98 205.669 1216.38 205.116 1216.87 204.657C1217.36 204.198 1217.94 203.843 1218.57 203.613C1219.2 203.384 1219.88 203.285 1220.55 203.321C1223.5 203.393 1225.55 205.535 1225.49 208.501Z" fill="#790000" fill-opacity="0.67"/>
<path d="M1179.64 131.836C1179.64 132.415 1179.52 132.988 1179.29 133.521C1179.07 134.054 1178.73 134.534 1178.31 134.934C1177.89 135.333 1177.4 135.643 1176.85 135.844C1176.31 136.045 1175.73 136.134 1175.15 136.104C1172.45 136.046 1170.87 134.374 1170.96 131.667C1171.01 130.538 1171.5 129.473 1172.33 128.7C1173.15 127.926 1174.25 127.506 1175.38 127.528C1176.51 127.55 1177.59 128.013 1178.38 128.817C1179.18 129.622 1179.63 130.705 1179.64 131.836Z" fill="#FF7456"/>
<path d="M1289.23 196.764C1289.74 196.758 1290.26 196.853 1290.74 197.046C1291.21 197.239 1291.65 197.525 1292.02 197.888C1292.38 198.25 1292.68 198.682 1292.88 199.158C1293.07 199.635 1293.18 200.146 1293.18 200.662C1293.15 202.716 1291.2 204.501 1289.07 204.441C1287.08 204.383 1285.27 202.6 1285.23 200.653C1285.19 198.617 1287.11 196.752 1289.23 196.764Z" fill="#FF7456"/>
<path d="M1214.45 184.555C1214.12 186.484 1213.06 187.721 1211.03 187.558C1209.21 187.414 1208.01 186.245 1208.07 184.369C1208.14 182.417 1209.25 181.137 1211.31 181.215C1213.37 181.292 1214.31 182.562 1214.45 184.555Z" fill="#790000" fill-opacity="0.67"/>
<path d="M1179.13 115.643C1180.96 115.886 1182.3 116.784 1182.28 118.67C1182.25 120.606 1180.99 121.888 1179.06 121.882C1177.19 121.877 1176.13 120.571 1176.13 118.732C1176.12 116.836 1177.34 115.89 1179.13 115.643Z" fill="#FFBDA3"/>
<path d="M1250.23 208.024C1248.54 207.74 1247.55 206.685 1247.6 205.101C1247.65 203.361 1248.81 202.236 1250.59 202.377C1252.18 202.498 1253.29 203.535 1253.21 205.224C1253.12 207.005 1251.96 207.891 1250.23 208.024Z" fill="#790000" fill-opacity="0.67"/>
<path d="M999.426 545.76C996.259 545.097 993.155 544.935 990.244 546.772C989.297 547.367 988.241 547.728 987.62 548.763C986.915 549.912 985.622 550.604 984.522 550.339C980.085 549.265 976.011 551.157 971.813 551.717C933.423 556.846 896.907 531.241 888.915 493.42C880.731 454.676 903.466 416.717 941.551 405.548C984.516 392.945 1030.24 422.54 1036 466.963C1039.14 491.136 1032.1 512.237 1015.38 530.033C1014.51 530.957 1012.83 531.714 1014.81 533.236C1015.39 533.67 1015.16 534.467 1014.59 534.963C1014.03 535.46 1013.26 535.545 1012.8 535.05C1011.36 533.531 1010.4 534.579 1009.24 535.459C1006.86 537.266 1004.6 539.403 1001.93 540.596C999.256 541.788 999.762 543.846 999.392 545.792L999.426 545.76Z" fill="#FFF0DD" fill-opacity="0.7"/>
<path d="M999.392 545.792C1006.93 538.978 1015.6 534.621 1025.76 533.074C1048.32 529.634 1072.02 546.076 1076.53 568.496C1081.58 593.71 1067.88 616.425 1043.35 623.424C1018 630.64 989.982 612.468 986.274 586.388C984.044 570.696 988.615 557.221 999.426 545.76L999.392 545.792Z" fill="#FFAB90" fill-opacity="0.58"/>
<path d="M951.268 572.564C951.236 575.117 950.701 577.638 949.693 579.983C948.685 582.328 947.224 584.451 945.394 586.23C943.564 588.009 941.401 589.409 939.028 590.349C936.656 591.289 934.122 591.751 931.571 591.709C921.153 591.52 912.391 582.477 912.55 572.054C912.712 561.466 921.79 552.694 932.353 552.928C937.455 553.049 942.303 555.179 945.845 558.856C949.386 562.532 951.335 567.458 951.268 572.564Z" fill="#FFAB90" fill-opacity="0.54"/>
<path d="M1057.45 487.201C1065.42 487.346 1071.98 493.916 1071.84 501.632C1071.7 509.129 1064.81 515.879 1057.27 515.898C1049.41 515.917 1042.68 508.981 1042.86 501.034C1043.04 493.139 1049.44 487.069 1057.45 487.201Z" fill="#FFF4E9"/>
<path d="M984.606 593.16C984.509 599.404 979.643 604.132 973.429 604.025C967.651 603.921 962.608 598.676 962.674 592.862C962.74 587.047 967.906 581.974 973.728 582.017C975.182 582.005 976.623 582.288 977.965 582.847C979.307 583.406 980.523 584.231 981.539 585.271C982.554 586.312 983.35 587.547 983.877 588.902C984.404 590.258 984.652 591.706 984.606 593.16V593.16Z" fill="#FFAB90"/>
<path d="M944.95 395.799C944.947 397.161 944.671 398.509 944.139 399.763C943.607 401.016 942.83 402.151 941.853 403.1C940.876 404.048 939.719 404.792 938.451 405.286C937.183 405.781 935.828 406.016 934.467 405.979C928.983 405.923 924.124 400.946 924.194 395.453C924.264 389.96 929.256 385.208 934.84 385.246C940.423 385.285 945.057 390.108 944.95 395.799Z" fill="#FFF4E9"/>
<path d="M1051.92 527.114C1051.97 522.127 1056.31 517.747 1061.23 517.711C1066.39 517.675 1070.67 521.963 1070.69 527.183C1070.71 532.403 1066.71 536.378 1061.44 536.352C1055.98 536.313 1051.87 532.323 1051.92 527.114Z" fill="#FFAB90"/>
<path d="M960.1 570.794C962.127 570.827 964.062 571.654 965.487 573.096C966.913 574.539 967.718 576.483 967.727 578.512C967.713 582.769 964.084 586.221 959.722 586.135C955.36 586.05 952.174 582.778 952.193 578.426C952.228 573.935 955.569 570.719 960.1 570.794Z" fill="#790000" fill-opacity="0.67"/>
<path d="M1054.53 470.381C1055.51 470.397 1056.48 470.609 1057.38 471.002C1058.28 471.396 1059.09 471.964 1059.76 472.674C1060.44 473.384 1060.97 474.221 1061.32 475.136C1061.67 476.052 1061.84 477.029 1061.81 478.009C1061.73 482.069 1058.3 485.227 1054.07 485.121C1049.7 484.999 1046.95 481.957 1047.11 477.425C1047.25 473.274 1050.44 470.243 1054.53 470.381Z" fill="#790000" fill-opacity="0.67"/>
<path d="M978.303 578.049C974.635 577.982 971.913 575.219 971.975 571.622C972.037 568.025 974.918 565.105 978.378 565.148C981.838 565.191 984.899 568.229 984.904 571.575C984.923 572.442 984.764 573.303 984.438 574.105C984.111 574.908 983.623 575.635 983.004 576.242C982.386 576.849 981.649 577.322 980.841 577.633C980.032 577.943 979.168 578.085 978.303 578.049V578.049Z" fill="#790000" fill-opacity="0.67"/>
<path d="M911.314 540.932C914.073 540.982 916.796 543.882 916.712 546.69C916.63 549.399 913.867 551.974 911.126 551.885C908.319 551.801 905.778 549.246 905.742 546.468C905.706 543.69 908.49 540.881 911.314 540.932Z" fill="#790000" fill-opacity="0.67"/>
<path d="M1047.33 514.457C1048.74 514.51 1050.08 515.108 1051.05 516.125C1052.03 517.141 1052.57 518.497 1052.57 519.907C1052.54 522.614 1049.75 525.221 1047.02 525.102C1046.32 525.09 1045.63 524.937 1044.99 524.651C1044.35 524.365 1043.77 523.952 1043.29 523.438C1042.81 522.923 1042.45 522.318 1042.21 521.657C1041.97 520.997 1041.87 520.295 1041.91 519.595C1042 516.511 1044.24 514.387 1047.33 514.457Z" fill="#790000" fill-opacity="0.67"/>
<path d="M967.176 562.023C967.781 562.023 968.378 562.147 968.933 562.387C969.488 562.626 969.989 562.976 970.404 563.415C970.819 563.855 971.14 564.374 971.348 564.942C971.556 565.509 971.647 566.113 971.614 566.717C971.543 569.536 969.793 571.179 966.969 571.078C965.79 571.02 964.681 570.503 963.877 569.639C963.074 568.774 962.639 567.63 962.666 566.449C962.693 565.269 963.18 564.146 964.022 563.319C964.864 562.492 965.996 562.027 967.176 562.023Z" fill="#FF7456"/>
<path d="M1035.32 447.909C1035.31 447.37 1035.41 446.836 1035.62 446.337C1035.82 445.838 1036.12 445.384 1036.5 445.002C1036.88 444.62 1037.33 444.317 1037.83 444.112C1038.33 443.906 1038.86 443.801 1039.4 443.803C1041.54 443.842 1043.4 445.881 1043.33 448.104C1043.26 450.181 1041.39 452.057 1039.36 452.093C1037.24 452.128 1035.3 450.123 1035.32 447.909Z" fill="#FF7456"/>
<path d="M1022.31 525.892C1024.32 526.239 1025.61 527.345 1025.43 529.467C1025.27 531.367 1024.05 532.609 1022.09 532.541C1020.06 532.467 1018.72 531.305 1018.81 529.151C1018.9 526.998 1020.23 526.026 1022.31 525.892Z" fill="#790000" fill-opacity="0.67"/>
<path d="M950.279 562.491C950.539 560.582 951.48 559.186 953.448 559.215C955.469 559.252 956.801 560.577 956.788 562.586C956.776 564.535 955.409 565.639 953.491 565.634C951.512 565.638 950.53 564.362 950.279 562.491Z" fill="#FFBDA3"/>
<path d="M1046.93 488.642C1046.62 490.398 1045.52 491.427 1043.87 491.374C1042.05 491.314 1040.88 490.105 1041.03 488.241C1041.17 486.588 1042.25 485.433 1044.02 485.525C1045.87 485.618 1046.79 486.833 1046.93 488.642Z" fill="#790000" fill-opacity="0.67"/>
</g>
<g clip-path="url(#clip2_301_140)">
<path d="M712.793 714.577C705.836 713.233 699.035 712.983 692.722 717.104C690.668 718.439 688.37 719.266 687.046 721.553C685.539 724.093 682.732 725.65 680.314 725.108C670.563 722.908 661.707 727.189 652.533 728.556C568.649 741.088 487.826 686.26 469.046 603.718C449.814 519.16 498.308 435.274 581.322 409.529C674.971 380.478 776.082 443.73 790.21 540.805C797.907 593.626 783.195 640.07 747.191 679.6C745.324 681.654 741.662 683.369 746.064 686.634C747.33 687.565 746.854 689.318 745.641 690.423C744.429 691.529 742.741 691.742 741.708 690.674C738.507 687.397 736.437 689.725 733.933 691.689C728.786 695.727 723.906 700.482 718.097 703.185C712.287 705.887 713.463 710.376 712.72 714.649L712.793 714.577Z" fill="#7E6CED" fill-opacity="0.24"/>
<path d="M837.851 584.391C855.307 584.438 869.909 598.601 869.857 615.501C869.813 631.922 854.939 646.935 838.437 647.231C821.218 647.541 806.264 632.579 806.39 615.173C806.508 597.882 820.307 584.374 837.851 584.391Z" fill="#FFAB90"/>
<path d="M588.434 388.068C588.472 391.05 587.914 394.01 586.792 396.773C585.67 399.536 584.006 402.047 581.899 404.157C579.792 406.267 577.285 407.934 574.524 409.06C571.763 410.186 568.806 410.748 565.825 410.712C553.815 410.775 543.007 400.042 542.974 388.012C542.94 375.982 553.71 365.408 565.938 365.303C578.165 365.198 588.474 375.603 588.434 388.068Z" fill="#FFAB90"/>
<path d="M830.9 547.66C833.047 547.663 835.172 548.093 837.152 548.925C839.131 549.756 840.926 550.973 842.432 552.504C843.938 554.035 845.125 555.85 845.925 557.843C846.724 559.837 847.12 561.969 847.089 564.117C847.066 573.009 839.644 580.041 830.387 579.951C820.826 579.831 814.701 573.264 814.887 563.336C815.056 554.241 821.933 547.498 830.9 547.66Z" fill="#790000" fill-opacity="0.67"/>
<path d="M788.068 499.107C788.038 497.928 788.243 496.754 788.671 495.655C789.098 494.555 789.74 493.552 790.558 492.702C791.376 491.853 792.355 491.175 793.438 490.707C794.52 490.239 795.685 489.991 796.864 489.977C801.558 489.99 805.689 494.393 805.611 499.262C805.534 503.813 801.51 507.984 797.062 508.132C792.411 508.279 788.098 503.955 788.068 499.107Z" fill="#FF7456"/>
<path d="M814.865 587.903C814.261 591.757 811.879 594.048 808.257 593.987C804.281 593.919 801.68 591.31 801.952 587.224C802.186 583.601 804.525 581.034 808.385 581.175C812.456 581.316 814.513 583.945 814.865 587.903Z" fill="#790000" fill-opacity="0.67"/>
<path d="M684.421 618.865C682.338 616.35 679.991 614.271 676.538 613.891C675.416 613.765 674.356 613.387 673.215 613.813C671.936 614.276 670.481 614.009 669.779 613.108C666.952 609.472 662.548 608.404 658.882 606.206C625.359 586.118 612.637 542.951 630.108 508.077C648.009 472.353 689.817 456.688 726.898 471.818C768.731 488.884 786.208 540.986 762.828 579.671C750.11 600.724 731.282 612.949 706.9 616.483C705.634 616.667 703.829 616.206 704.44 618.656C704.618 619.358 703.936 619.842 703.181 619.881C702.426 619.92 701.762 619.501 701.707 618.819C701.527 616.716 700.109 616.939 698.643 616.905C695.629 616.836 692.501 617.101 689.642 616.362C686.784 615.624 685.889 617.566 684.374 618.87L684.421 618.865Z" fill="#7E6CED" fill-opacity="0.24"/>
<path d="M684.374 618.869C694.609 618.232 704.192 620.245 713.179 625.408C733.146 636.876 741.514 664.754 730.977 685.284C719.117 708.363 694.022 717.677 670.255 707.773C645.716 697.534 635.028 665.576 648.497 642.661C656.603 628.874 668.683 621.114 684.421 618.865L684.374 618.869Z" fill="#9793CA"/>
<path d="M629.56 609.742C627.931 611.737 625.923 613.39 623.653 614.607C621.383 615.825 618.896 616.582 616.333 616.835C613.77 617.088 611.183 616.833 608.719 616.083C606.256 615.334 603.965 614.105 601.978 612.468C593.875 605.769 592.645 593.123 599.324 584.997C606.109 576.742 618.789 575.527 626.978 582.352C630.928 585.656 633.415 590.385 633.899 595.514C634.383 600.642 632.824 605.755 629.56 609.742Z" fill="#FFAB90" fill-opacity="0.54"/>
<path d="M767.029 609.126C773.229 614.252 774.281 623.566 769.317 629.565C764.496 635.397 754.809 636.388 748.848 631.664C742.629 626.735 741.685 617.034 746.824 610.875C751.926 604.756 760.79 603.986 767.029 609.126Z" fill="#FFAB90"/>
<path d="M735.71 466.261C734.851 467.334 733.786 468.224 732.578 468.879C731.37 469.534 730.043 469.941 728.675 470.075C727.308 470.21 725.928 470.069 724.616 469.662C723.304 469.255 722.086 468.589 721.036 467.704C716.743 464.212 716.037 457.229 719.546 452.938C723.054 448.646 729.982 448.034 734.365 451.575C738.748 455.116 739.372 461.836 735.71 466.261Z" fill="#FFAB90"/>
<path d="M637.644 613.898C639.223 615.199 640.23 617.067 640.449 619.102C640.667 621.138 640.079 623.178 638.812 624.785C636.124 628.135 631.09 628.579 627.701 625.769C624.312 622.958 623.854 618.373 626.606 614.951C629.457 611.428 634.115 610.99 637.644 613.898Z" fill="#790000" fill-opacity="0.67"/>
<path d="M775.305 594.019C776.068 594.649 776.698 595.423 777.159 596.299C777.621 597.174 777.903 598.132 777.991 599.118C778.079 600.103 777.971 601.097 777.672 602.04C777.373 602.984 776.89 603.859 776.251 604.614C773.64 607.772 768.941 608.103 765.672 605.362C762.304 602.521 762.046 598.391 765.018 594.912C767.739 591.725 772.16 591.337 775.305 594.019Z" fill="#790000" fill-opacity="0.67"/>
<path d="M647.449 631.068C644.596 628.71 644.185 624.817 646.496 622.017C648.806 619.218 652.916 618.725 655.619 620.934C658.323 623.143 658.829 627.465 656.73 630.109C656.2 630.805 655.533 631.385 654.77 631.813C654.008 632.241 653.166 632.508 652.296 632.598C651.426 632.688 650.548 632.598 649.714 632.335C648.88 632.072 648.11 631.641 647.449 631.068V631.068Z" fill="#790000" fill-opacity="0.67"/>
<path d="M617.915 559.658C620.061 561.431 620.387 565.432 618.555 567.595C616.787 569.682 612.988 569.977 610.881 568.183C608.718 566.352 608.319 562.738 610.037 560.523C611.755 558.309 615.718 557.842 617.915 559.658Z" fill="#790000" fill-opacity="0.67"/>
<path d="M648.744 611.424C649.22 611.805 649.614 612.278 649.902 612.816C650.189 613.354 650.364 613.945 650.415 614.553C650.467 615.16 650.394 615.772 650.201 616.351C650.009 616.93 649.7 617.463 649.294 617.919C647.466 620.099 645.052 620.295 642.887 618.441C641.994 617.654 641.443 616.549 641.352 615.361C641.261 614.173 641.638 612.997 642.401 612.082C643.164 611.168 644.255 610.587 645.439 610.464C646.624 610.341 647.81 610.686 648.744 611.424Z" fill="#FF7456"/>
<path d="M774.269 564.203C774.603 563.775 775.019 563.417 775.493 563.151C775.967 562.885 776.489 562.715 777.029 562.653C777.569 562.59 778.116 562.635 778.638 562.785C779.16 562.935 779.647 563.188 780.071 563.528C781.738 564.906 781.92 567.682 780.467 569.393C779.108 570.99 776.455 571.297 774.829 570.048C773.13 568.739 772.861 565.938 774.269 564.203Z" fill="#FF7456"/>
<path d="M714.972 617.571C716.341 619.11 716.662 620.792 715.188 622.355C713.869 623.756 712.123 623.967 710.621 622.683C709.06 621.344 708.74 619.589 710.163 617.946C711.587 616.302 713.246 616.37 714.972 617.571Z" fill="#790000" fill-opacity="0.67"/>
<path d="M635.113 601.17C636.518 599.827 638.139 599.317 639.674 600.577C641.246 601.877 641.464 603.76 640.191 605.337C638.956 606.868 637.183 606.88 635.672 605.67C634.108 604.429 634.135 602.805 635.113 601.17Z" fill="#FFBDA3"/>
<path d="M757.821 603.65C756.478 604.845 754.96 604.963 753.688 603.882C752.293 602.693 752.131 601.004 753.423 599.629C754.567 598.408 756.15 598.179 757.483 599.359C758.891 600.6 758.854 602.138 757.821 603.65Z" fill="#790000" fill-opacity="0.67"/>
<path d="M563.751 660.075C561.76 659.691 559.814 659.619 558.007 660.799C557.419 661.181 556.762 661.417 556.383 662.072C555.952 662.799 555.148 663.244 554.456 663.089C551.666 662.46 549.131 663.685 546.506 664.076C522.5 667.662 499.37 651.972 493.995 628.349C488.491 604.15 502.369 580.144 526.126 572.776C552.927 564.462 581.863 582.564 585.906 610.345C588.109 625.461 583.899 638.753 573.595 650.066C573.061 650.653 572.013 651.144 573.273 652.079C573.635 652.345 573.499 652.847 573.152 653.163C572.805 653.479 572.322 653.54 572.026 653.235C571.11 652.297 570.518 652.963 569.801 653.525C568.328 654.681 566.931 656.042 565.269 656.815C563.606 657.588 563.943 658.873 563.73 660.096L563.751 660.075Z" fill="#FFAB90" fill-opacity="0.54"/>
<path d="M528.162 566.634C528.173 567.488 528.013 568.335 527.692 569.125C527.371 569.916 526.895 570.635 526.292 571.239C525.689 571.843 524.971 572.32 524.181 572.642C523.391 572.964 522.544 573.125 521.691 573.115C518.254 573.133 515.161 570.061 515.152 566.618C515.142 563.175 518.225 560.149 521.724 560.119C525.223 560.089 528.173 563.067 528.162 566.634Z" fill="#FFAB90"/>
<path d="M597.552 612.307C598.166 612.308 598.774 612.431 599.341 612.669C599.907 612.907 600.421 613.255 600.852 613.693C601.283 614.131 601.623 614.65 601.851 615.221C602.08 615.791 602.193 616.402 602.185 617.016C602.178 619.561 600.054 621.573 597.405 621.548C594.669 621.514 592.916 619.634 592.969 616.793C593.017 614.19 594.985 612.26 597.552 612.307Z" fill="#790000" fill-opacity="0.67"/>
<path d="M585.294 598.412C585.285 598.074 585.344 597.738 585.466 597.424C585.589 597.109 585.772 596.822 586.006 596.579C586.241 596.336 586.521 596.141 586.83 596.008C587.14 595.874 587.474 595.803 587.811 595.799C589.154 595.802 590.337 597.062 590.314 598.456C590.292 599.758 589.141 600.952 587.868 600.994C586.537 601.036 585.302 599.799 585.294 598.412Z" fill="#FF7456"/>
</g>
</g>
<defs>
<clipPath id="clip0_301_140">
<rect width="1639" height="617" fill="white"/>
</clipPath>
<clipPath id="clip1_301_140">
<rect width="797" height="643.423" fill="white" transform="translate(851.439 6) rotate(0.840589)"/>
</clipPath>
<clipPath id="clip2_301_140">
<rect width="521.165" height="420.739" fill="white" transform="translate(464 886.163) rotate(-89.8479)"/>
</clipPath>
</defs>
</svg>
